<svg xmlns="http://www.w3.org/2000/svg" width="420" height="420" viewBox="0 0 420 420">
  <rect width="420" height="420" rx="32" fill="#a50064"/>
  <rect x="34" y="34" width="352" height="352" rx="24" fill="#fff"/>
  <g fill="#111827">
    <rect x="64" y="64" width="92" height="92" rx="8"/>
    <rect x="264" y="64" width="92" height="92" rx="8"/>
    <rect x="64" y="264" width="92" height="92" rx="8"/>
    <rect x="84" y="84" width="52" height="52" rx="4" fill="#fff"/>
    <rect x="284" y="84" width="52" height="52" rx="4" fill="#fff"/>
    <rect x="84" y="284" width="52" height="52" rx="4" fill="#fff"/>
    <rect x="184" y="64" width="24" height="24"/><rect x="216" y="64" width="24" height="24"/>
    <rect x="184" y="104" width="24" height="24"/><rect x="224" y="112" width="32" height="24"/>
    <rect x="176" y="160" width="44" height="24"/><rect x="240" y="160" width="24" height="44"/>
    <rect x="184" y="224" width="24" height="24"/><rect x="224" y="224" width="56" height="24"/>
    <rect x="176" y="264" width="24" height="56"/><rect x="216" y="264" width="24" height="24"/><rect x="264" y="264" width="92" height="24"/>
    <rect x="216" y="304" width="52" height="24"/><rect x="304" y="304" width="24" height="52"/>
    <rect x="176" y="352" width="96" height="20"/>
  </g>
  <text x="210" y="205" text-anchor="middle" font-family="Arial, sans-serif" font-weight="900" font-size="34" fill="#a50064">MoMo</text>
  <text x="210" y="232" text-anchor="middle" font-family="Arial, sans-serif" font-weight="700" font-size="12" fill="#334155">Thay ảnh này bằng QR MoMo thật</text>
</svg>
